<svg width="40" height="40" viewBox="0 0 40 40" fill="none" xmlns="http://www.w3.org/2000/svg">
<path fill-rule="evenodd" clip-rule="evenodd" d="M4 8C3.64638 8 3.30724 8.14048 3.05719 8.39052C2.80714 8.64057 2.66667 8.97971 2.66667 9.33333C2.66667 9.68696 2.80714 10.0261 3.05719 10.2761C3.30724 10.5262 3.64638 10.6667 4 10.6667H36C36.3536 10.6667 36.6928 10.5262 36.9428 10.2761C37.1929 10.0261 37.3333 9.68696 37.3333 9.33333C37.3333 8.97971 37.1929 8.64057 36.9428 8.39052C36.6928 8.14048 36.3536 8 36 8H4ZM2.66667 20C2.66667 19.6464 2.80714 19.3072 3.05719 19.0572C3.30724 18.8071 3.64638 18.6667 4 18.6667H36C36.3536 18.6667 36.6928 18.8071 36.9428 19.0572C37.1929 19.3072 37.3333 19.6464 37.3333 20C37.3333 20.3536 37.1929 20.6928 36.9428 20.9428C36.6928 21.1929 36.3536 21.3333 36 21.3333H4C3.64638 21.3333 3.30724 21.1929 3.05719 20.9428C2.80714 20.6928 2.66667 20.3536 2.66667 20ZM2.66667 30.6667C2.66667 30.313 2.80714 29.9739 3.05719 29.7239C3.30724 29.4738 3.64638 29.3333 4 29.3333H36C36.3536 29.3333 36.6928 29.4738 36.9428 29.7239C37.1929 29.9739 37.3333 30.313 37.3333 30.6667C37.3333 31.0203 37.1929 31.3594 36.9428 31.6095C36.6928 31.8595 36.3536 32 36 32H4C3.64638 32 3.30724 31.8595 3.05719 31.6095C2.80714 31.3594 2.66667 31.0203 2.66667 30.6667Z" fill="#715D00"/>
</svg>
