<svg width="329" height="113" viewBox="0 0 329 113" fill="none" xmlns="http://www.w3.org/2000/svg">
<path d="M154.336 0C145.048 1.74118e-06 136.852 2.82716 131.959 7.15515C130.956 7.08319 129.942 7.03633 128.908 7.03273H128.745C119.708 7.03273 111.698 9.71582 106.764 13.8478C104.915 14.0522 103.084 14.2624 101.269 14.4871C97.0799 12.8477 92.0867 11.8804 86.7385 11.8618H86.5988C81.1989 11.8618 76.1586 12.834 71.929 14.4871C69.2559 13.9401 66.3802 13.6405 63.4065 13.6302H63.2668C51.1463 13.6302 40.8544 18.4533 37.3735 25.1247C25.6363 25.7908 16.0671 31.0078 13.4827 37.8434C5.45835 40.6855 0.0576584 45.9575 0.000459805 52.0041C-0.03294 55.5349 1.75485 58.8181 4.84382 61.5125C4.14221 62.9615 3.7644 64.4842 3.74941 66.0695C3.67147 74.3087 13.5797 81.1941 26.5691 82.4611C26.4208 83.1433 26.3429 83.8364 26.3362 84.5423C26.2501 93.6443 38.3427 101.072 53.324 101.124C60.4736 101.149 66.984 99.4892 71.8591 96.7578C73.798 97.1625 75.7724 97.5628 77.7736 97.9413C82.6391 102.231 90.7694 105.051 99.9879 105.083C104.916 105.1 109.542 104.317 113.54 102.934C114.064 102.983 114.597 103.021 115.123 103.07C119.973 105.926 126.562 107.696 133.845 107.722C139.456 107.741 144.681 106.72 149.027 104.96C150.496 104.992 151.971 105.022 153.451 105.042C158.393 108.795 165.981 111.215 174.501 111.245C184.082 111.278 192.517 108.278 197.391 103.736C200.893 103.478 204.347 103.194 207.753 102.866C211.291 104.414 215.469 105.453 220.001 105.817C224.861 110.127 232.994 112.967 242.238 113C254.484 113.042 264.902 108.145 268.341 101.383C269.65 101.506 270.982 101.568 272.346 101.573C272.814 101.575 273.281 101.559 273.743 101.546C274.206 101.533 274.661 101.518 275.117 101.492C284.33 100.955 292.229 97.6103 296.423 92.881C298.13 93.092 299.902 93.2011 301.709 93.2074C316.69 93.2597 328.913 85.9178 329 76.8159C329.048 71.6499 325.178 67.0201 319.08 63.9747C321.994 61.3642 323.705 58.2223 323.737 54.8335C323.785 49.8015 320.11 45.2829 314.283 42.2372C314.548 41.3292 314.693 40.4015 314.702 39.4486C314.788 30.3466 302.696 22.9053 287.715 22.853H287.552C282.133 22.853 277.097 23.8284 272.858 25.4919C272.208 25.2871 271.565 25.0811 270.903 24.8798C267.113 18.6029 257.214 14.1061 245.568 14.0655H245.405C240.561 14.0655 236.025 14.8351 232.086 16.1875C229.53 8.74125 218.702 3.11974 205.68 3.07427H205.517C197.121 3.07427 189.61 5.39013 184.63 9.03236C182.255 8.24466 179.661 7.67377 176.923 7.34559C172.085 2.94223 163.862 0.0326941 154.499 0H154.336Z" fill="#7FB3FF" fill-opacity="0.3"/>
<path d="M154.797 4.73932C145.93 4.73932 138.106 7.32934 133.435 11.2943C132.477 11.2284 131.509 11.1854 130.523 11.1821H130.367C121.739 11.1821 114.093 13.6402 109.383 17.4255C107.617 17.6128 105.87 17.8053 104.137 18.0113C100.138 16.5093 95.3713 15.6232 90.2658 15.6061H90.1324C84.9774 15.6061 80.1658 16.4968 76.128 18.0113C73.5761 17.5101 70.8309 17.2357 67.9921 17.2262H67.8588C56.288 17.2262 46.463 21.6447 43.14 27.7565C31.9351 28.3668 22.8 33.1461 20.3328 39.4084C12.6725 42.0121 7.51677 46.8418 7.46217 52.3812C7.43028 55.6159 9.13698 58.6236 12.0858 61.0921C11.4161 62.4195 11.0554 63.8145 11.0411 65.2668C10.9667 72.8149 20.4255 79.1228 32.8256 80.2834C32.6841 80.9084 32.6097 81.5434 32.6033 82.1901C32.5211 90.5286 44.0652 97.3333 58.3669 97.3812C65.1923 97.4041 71.4073 95.8832 76.0613 93.3809C77.9122 93.7517 79.7971 94.1184 81.7075 94.4651C86.3523 98.3948 94.1138 100.978 102.914 101.008C107.619 101.023 112.035 100.306 115.852 99.0386C116.352 99.0843 116.86 99.1191 117.363 99.1633C121.992 101.78 128.283 103.402 135.235 103.425C140.592 103.443 145.58 102.507 149.729 100.895C151.131 100.925 152.539 100.952 153.952 100.97C158.67 104.408 165.914 106.626 174.047 106.653C183.194 106.684 191.246 103.935 195.899 99.7739C199.242 99.5373 202.539 99.2772 205.791 98.9763C209.169 100.394 213.157 101.347 217.483 101.681C222.123 105.629 229.887 108.231 238.712 108.26C250.403 108.3 260.348 103.813 263.631 97.618C264.88 97.7304 266.152 97.7881 267.454 97.7924C267.901 97.7939 268.347 97.7791 268.788 97.7675C269.23 97.7559 269.664 97.742 270.1 97.7177C278.895 97.2261 286.435 94.162 290.439 89.8293C292.069 90.0226 293.76 90.1226 295.485 90.1284C309.787 90.1763 321.456 83.4502 321.538 75.1118C321.585 70.3791 317.89 66.1377 312.068 63.3477C314.85 60.9562 316.483 58.0778 316.514 54.9733C316.56 50.3634 313.051 46.2238 307.489 43.4336C307.741 42.6017 307.881 41.7519 307.889 40.8789C307.971 32.5404 296.427 25.7233 282.126 25.6753H281.97C276.797 25.6753 271.99 26.569 267.943 28.0929C267.323 27.9053 266.708 27.7166 266.076 27.5322C262.458 21.7818 253.009 17.6622 241.891 17.6249H241.735C237.11 17.6249 232.78 18.33 229.02 19.569C226.581 12.7473 216.243 7.59737 203.812 7.55571H203.657C195.641 7.55571 188.471 9.67732 183.717 13.014C181.45 12.2924 178.973 11.7694 176.359 11.4688C171.741 7.43475 163.891 4.76927 154.953 4.73932H154.797Z" fill="#E9E4C7" fill-opacity="0.6"/>
<path d="M154.797 4.73932C145.93 4.73932 138.106 7.32934 133.435 11.2943C132.477 11.2284 131.509 11.1854 130.523 11.1821H130.367C121.739 11.1821 114.093 13.6402 109.383 17.4255C107.617 17.6128 105.87 17.8053 104.137 18.0113C100.138 16.5093 95.3713 15.6232 90.2658 15.6061H90.1324C84.9774 15.6061 80.1658 16.4968 76.128 18.0113C73.5761 17.5101 70.8309 17.2357 67.9921 17.2262H67.8588C56.288 17.2262 46.463 21.6447 43.14 27.7565C31.9351 28.3668 22.8 33.1461 20.3328 39.4084C12.6725 42.0121 7.51677 46.8418 7.46217 52.3812C7.43028 55.6159 9.13698 58.6236 12.0858 61.0921C11.4161 62.4195 11.0554 63.8145 11.0411 65.2668C10.9667 72.8149 20.4255 79.1228 32.8256 80.2834C32.6841 80.9084 32.6097 81.5434 32.6033 82.1901C32.5211 90.5286 44.0652 97.3333 58.3669 97.3812C65.1923 97.4041 71.4073 95.8832 76.0613 93.3809C77.9122 93.7517 79.7971 94.1184 81.7075 94.4651C86.3523 98.3948 94.1138 100.978 102.914 101.008C107.619 101.023 112.035 100.306 115.852 99.0386C116.352 99.0843 116.86 99.1191 117.363 99.1633C121.992 101.78 128.283 103.402 135.235 103.425C140.592 103.443 145.58 102.507 149.729 100.895C151.131 100.925 152.539 100.952 153.952 100.97C158.67 104.408 165.914 106.626 174.047 106.653C183.194 106.684 191.246 103.935 195.899 99.7739C199.242 99.5373 202.539 99.2772 205.791 98.9763C209.169 100.394 213.157 101.347 217.483 101.681C222.123 105.629 229.887 108.231 238.712 108.26C250.403 108.3 260.348 103.813 263.631 97.618C264.88 97.7304 266.152 97.7881 267.454 97.7924C267.901 97.7939 268.347 97.7791 268.788 97.7675C269.23 97.7559 269.664 97.742 270.1 97.7177C278.895 97.2261 286.435 94.162 290.439 89.8293C292.069 90.0226 293.76 90.1226 295.485 90.1284C309.787 90.1763 321.456 83.4502 321.538 75.1118C321.585 70.3791 317.89 66.1377 312.068 63.3477C314.85 60.9562 316.483 58.0778 316.514 54.9733C316.56 50.3634 313.051 46.2238 307.489 43.4336C307.741 42.6017 307.881 41.7519 307.889 40.8789C307.971 32.5404 296.427 25.7233 282.126 25.6753H281.97C276.797 25.6753 271.99 26.569 267.943 28.0929C267.323 27.9053 266.708 27.7166 266.076 27.5322C262.458 21.7818 253.009 17.6622 241.891 17.6249H241.735C237.11 17.6249 232.78 18.33 229.02 19.569C226.581 12.7473 216.243 7.59737 203.812 7.55571H203.657C195.641 7.55571 188.471 9.67732 183.717 13.014C181.45 12.2924 178.973 11.7694 176.359 11.4688C171.741 7.43475 163.891 4.76927 154.953 4.73932H154.797Z" fill="#E9E4C7" fill-opacity="0.2"/>
</svg>
