<svg width="446" height="102" viewBox="0 0 446 102" fill="none" xmlns="http://www.w3.org/2000/svg">
<path d="M209.221 0C196.63 1.57168e-06 185.52 2.55195 178.886 6.45863C177.527 6.39368 176.152 6.35138 174.751 6.34812H174.53C162.278 6.34813 151.42 8.77003 144.732 12.4998C142.225 12.6843 139.743 12.874 137.282 13.0769C131.604 11.597 124.835 10.7239 117.585 10.7071H117.395C110.075 10.7071 103.242 11.5847 97.5086 13.0769C93.8848 12.5831 89.9865 12.3127 85.9554 12.3033H85.766C69.3351 12.3033 55.3831 16.6569 50.6644 22.6789C34.7531 23.2802 21.7809 27.9893 18.2774 34.1595C7.39946 36.725 0.078163 41.4837 0.000623322 46.9417C-0.0446542 50.1289 2.37891 53.0924 6.56639 55.5246C5.61528 56.8325 5.10311 58.207 5.08278 59.638C4.97712 67.0751 18.409 73.2903 36.0176 74.4339C35.8167 75.0497 35.711 75.6754 35.702 76.3126C35.5853 84.5285 51.9782 91.2332 72.2872 91.2804C81.9794 91.3029 90.805 89.8044 97.4139 87.3389C100.042 87.7042 102.719 88.0655 105.432 88.4072C112.027 92.2791 123.049 94.8244 135.546 94.8535C142.227 94.869 148.497 94.1619 153.917 92.9135C154.628 92.9584 155.35 92.9928 156.064 93.0362C162.638 95.6148 171.571 97.2126 181.443 97.2356C189.05 97.2533 196.133 96.3311 202.024 94.743C204.016 94.7718 206.015 94.7991 208.022 94.8167C214.721 98.204 225.007 100.389 236.558 100.416C249.545 100.446 260.981 97.7376 267.587 93.6379C272.335 93.4048 277.017 93.1485 281.634 92.8521C286.432 94.2494 292.095 95.188 298.238 95.5166C304.827 99.407 315.852 101.971 328.384 102C344.985 102.038 359.108 97.6173 363.769 91.5137C365.544 91.6245 367.35 91.6813 369.199 91.6856C369.833 91.6871 370.466 91.6724 371.093 91.661C371.72 91.6496 372.337 91.6359 372.955 91.6119C385.445 91.1276 396.152 88.1085 401.838 83.8394C404.152 84.0299 406.554 84.1284 409.004 84.1341C429.313 84.1814 445.883 77.5541 445.999 69.3382C446.066 64.6751 440.819 60.4961 432.552 57.7471C436.502 55.3907 438.822 52.5546 438.865 49.4957C438.93 44.9535 433.948 40.8748 426.049 38.1256C426.408 37.306 426.605 36.4687 426.618 35.6084C426.734 27.3925 410.341 20.6756 390.032 20.6283H389.812C382.466 20.6283 375.639 21.5088 369.893 23.0104C369.012 22.8255 368.139 22.6396 367.242 22.4579C362.105 16.792 348.685 12.733 332.898 12.6962H332.677C326.109 12.6962 319.96 13.391 314.621 14.6117C311.157 7.89033 296.477 2.81604 278.825 2.775H278.604C267.222 2.775 257.04 4.86543 250.289 8.1531C247.07 7.44208 243.553 6.92677 239.841 6.63054C233.283 2.65582 222.135 0.0295115 209.442 0H209.221Z" fill="#7FB3FF" fill-opacity="0.3"/>
<path d="M209.846 4.27795C197.826 4.27796 187.22 6.61585 180.887 10.1948C179.589 10.1353 178.277 10.0966 176.94 10.0936H176.729C165.033 10.0936 154.667 12.3123 148.282 15.7292C145.889 15.8983 143.52 16.0721 141.17 16.2579C135.75 14.9022 129.288 14.1024 122.366 14.0869H122.186C115.197 14.0869 108.675 14.8909 103.201 16.2579C99.7415 15.8055 96.02 15.5578 92.1717 15.5493H91.9909C76.3054 15.5493 62.9863 19.5377 58.4815 25.0545C43.292 25.6054 30.9082 29.9195 27.5637 35.5721C17.1791 37.9224 10.1899 42.282 10.1159 47.2822C10.0727 50.2019 12.3863 52.9169 16.3838 55.1451C15.4759 56.3433 14.9869 57.6025 14.9675 58.9134C14.8666 65.7267 27.6892 71.4205 44.4992 72.4682C44.3073 73.0323 44.2065 73.6055 44.1978 74.1893C44.0864 81.716 59.7357 87.8583 79.1235 87.9016C88.3761 87.9222 96.8014 86.5494 103.11 84.2907C105.62 84.6254 108.175 84.9564 110.765 85.2694C117.061 88.8166 127.583 91.1484 139.513 91.175C145.891 91.1892 151.877 90.5414 157.051 89.3977C157.729 89.4389 158.419 89.4703 159.1 89.5102C165.376 91.8725 173.903 93.3362 183.328 93.3573C190.59 93.3735 197.352 92.5286 202.976 91.0738C204.877 91.1001 206.786 91.1251 208.701 91.1413C215.096 94.2445 224.916 96.2461 235.943 96.2707C248.341 96.2984 259.258 93.8172 265.565 90.0614C270.097 89.8478 274.567 89.6131 278.975 89.3414C283.554 90.6216 288.961 91.4814 294.825 91.7824C301.116 95.3465 311.64 97.6951 323.604 97.7218C339.452 97.7572 352.934 93.707 357.384 88.1153C359.078 88.2168 360.802 88.2689 362.567 88.2728C363.173 88.2742 363.777 88.2608 364.375 88.2503C364.974 88.2399 365.563 88.2273 366.153 88.2053C378.076 87.7616 388.298 84.9957 393.726 81.0848C395.935 81.2593 398.228 81.3496 400.567 81.3548C419.954 81.398 435.773 75.3267 435.884 67.8C435.947 63.5281 430.938 59.6995 423.047 57.1811C426.818 55.0224 429.032 52.4242 429.074 49.6219C429.135 45.4607 424.379 41.7241 416.839 39.2055C417.181 38.4547 417.37 37.6876 417.382 36.8995C417.493 29.3728 401.844 23.2192 382.456 23.176H382.245C375.233 23.176 368.715 23.9826 363.23 25.3582C362.389 25.1888 361.556 25.0185 360.699 24.852C355.795 19.6614 342.984 15.9428 327.913 15.9092H327.702C321.432 15.9092 315.562 16.5457 310.465 17.664C307.158 11.5064 293.144 6.85778 276.293 6.82018H276.082C265.216 6.82019 255.496 8.73526 249.051 11.7472C245.978 11.0958 242.62 10.6237 239.077 10.3523C232.816 6.711 222.175 4.30499 210.057 4.27795H209.846Z" fill="#E9E4C7" fill-opacity="0.6"/>
<path d="M209.846 4.27795C197.826 4.27796 187.22 6.61585 180.887 10.1948C179.589 10.1353 178.277 10.0966 176.94 10.0936H176.729C165.033 10.0936 154.667 12.3123 148.282 15.7292C145.889 15.8983 143.52 16.0721 141.17 16.2579C135.75 14.9022 129.288 14.1024 122.366 14.0869H122.186C115.197 14.0869 108.675 14.8909 103.201 16.2579C99.7415 15.8055 96.02 15.5578 92.1717 15.5493H91.9909C76.3054 15.5493 62.9863 19.5377 58.4815 25.0545C43.292 25.6054 30.9082 29.9195 27.5637 35.5721C17.1791 37.9224 10.1899 42.282 10.1159 47.2822C10.0727 50.2019 12.3863 52.9169 16.3838 55.1451C15.4759 56.3433 14.9869 57.6025 14.9675 58.9134C14.8666 65.7267 27.6892 71.4205 44.4992 72.4682C44.3073 73.0323 44.2065 73.6055 44.1978 74.1893C44.0864 81.716 59.7357 87.8583 79.1235 87.9016C88.3761 87.9222 96.8014 86.5494 103.11 84.2907C105.62 84.6254 108.175 84.9564 110.765 85.2694C117.061 88.8166 127.583 91.1484 139.513 91.175C145.891 91.1892 151.877 90.5414 157.051 89.3977C157.729 89.4389 158.419 89.4703 159.1 89.5102C165.376 91.8725 173.903 93.3362 183.328 93.3573C190.59 93.3735 197.352 92.5286 202.976 91.0738C204.877 91.1001 206.786 91.1251 208.701 91.1413C215.096 94.2445 224.916 96.2461 235.943 96.2707C248.341 96.2984 259.258 93.8172 265.565 90.0614C270.097 89.8478 274.567 89.6131 278.975 89.3414C283.554 90.6216 288.961 91.4814 294.825 91.7824C301.116 95.3465 311.64 97.6951 323.604 97.7218C339.452 97.7572 352.934 93.707 357.384 88.1153C359.078 88.2168 360.802 88.2689 362.567 88.2728C363.173 88.2742 363.777 88.2608 364.375 88.2503C364.974 88.2399 365.563 88.2273 366.153 88.2053C378.076 87.7616 388.298 84.9957 393.726 81.0848C395.935 81.2593 398.228 81.3496 400.567 81.3548C419.954 81.398 435.773 75.3267 435.884 67.8C435.947 63.5281 430.938 59.6995 423.047 57.1811C426.818 55.0224 429.032 52.4242 429.074 49.6219C429.135 45.4607 424.379 41.7241 416.839 39.2055C417.181 38.4547 417.37 37.6876 417.382 36.8995C417.493 29.3728 401.844 23.2192 382.456 23.176H382.245C375.233 23.176 368.715 23.9826 363.23 25.3582C362.389 25.1888 361.556 25.0185 360.699 24.852C355.795 19.6614 342.984 15.9428 327.913 15.9092H327.702C321.432 15.9092 315.562 16.5457 310.465 17.664C307.158 11.5064 293.144 6.85778 276.293 6.82018H276.082C265.216 6.82019 255.496 8.73526 249.051 11.7472C245.978 11.0958 242.62 10.6237 239.077 10.3523C232.816 6.711 222.175 4.30499 210.057 4.27795H209.846Z" fill="#E9E4C7" fill-opacity="0.2"/>
</svg>
